<svg xmlns="http://www.w3.org/2000/svg" xmlns:xlink="http://www.w3.org/1999/xlink" width="70" height="88" viewBox="0 0 70 88">
  <metadata><?xpacket begin="﻿" id="W5M0MpCehiHzreSzNTczkc9d"?>
<x:xmpmeta xmlns:x="adobe:ns:meta/" x:xmptk="Adobe XMP Core 5.6-c142 79.160924, 2017/07/13-01:06:39        ">
   <rdf:RDF xmlns:rdf="http://www.w3.org/1999/02/22-rdf-syntax-ns#">
      <rdf:Description rdf:about=""/>
   </rdf:RDF>
</x:xmpmeta>
                                                                                                    
                                                                                                    
                                                                                                    
                                                                                                    
                                                                                                    
                                                                                                    
                                                                                                    
                                                                                                    
                                                                                                    
                                                                                                    
                                                                                                    
                                                                                                    
                                                                                                    
                                                                                                    
                                                                                                    
                                                                                                    
                                                                                                    
                                                                                                    
                                                                                                    
                                                                                                    
                           
<?xpacket end="w"?></metadata>
<defs>
    <style>
      .cls-1 {
        fill-rule: evenodd;
        fill: url(#linear-gradient);
      }
    </style>
    <linearGradient id="linear-gradient" x1="439" y1="3857" x2="439" y2="3769" gradientUnits="userSpaceOnUse">
      <stop offset="0" stop-color="#9219d7"/>
      <stop offset="1" stop-color="#c16ef0"/>
    </linearGradient>
  </defs>
  <path id="Forma_1" data-name="Forma 1" class="cls-1" d="M422.293,3808.2c3.975,8.9,12.483,12.77,16.707,12.77,2.777,0,7.407-1.68,11.382-5.35q-2.181.15-4.667,0.15c-0.39,0-.8,0-1.235-0.01a4.768,4.768,0,0,1-2.95,1.03h-3.537a4.906,4.906,0,0,1,0-9.81h3.537a4.792,4.792,0,0,1,3.36,1.38h0.87a38.926,38.926,0,0,0,9.544-.93,5.411,5.411,0,0,1-.395-2.04v-12.43a5.4,5.4,0,0,1,1.292-3.49,20.333,20.333,0,0,0-2.412-8.02c-2.438-4-7.137-5.86-14.789-5.86-6.348,0-10.732,1.33-13.4,4.08-2.069,2.13-3.268,5.17-3.829,9.77a5.367,5.367,0,0,1,1.321,3.52v12.43A5.311,5.311,0,0,1,422.293,3808.2Zm-8.7.12h4.243a2.911,2.911,0,0,0,2.894-2.93v-12.43a2.924,2.924,0,0,0-1.44-2.53c0.947-10.18,4.82-17.23,19.707-17.23,8.549,0,13.886,2.22,16.8,6.99a24.433,24.433,0,0,1,2.887,10.25,2.94,2.94,0,0,0-1.415,2.52v12.43a2.935,2.935,0,0,0,2.254,2.86c-1.871,1.24-5.743,2.5-13.761,2.5-0.65,0-1.327,0-2.032-.02a2.466,2.466,0,0,0-2.2-1.36h-3.537a2.51,2.51,0,0,0,0,5.02h3.537a2.457,2.457,0,0,0,2-1.04c0.745,0.02,1.474.03,2.179,0.03,9.038,0,14.784-1.56,17.111-4.66,0.1-.14.189-0.27,0.272-0.4h1.307a2.911,2.911,0,0,0,2.893-2.93v-12.43a2.91,2.91,0,0,0-2.893-2.93h-1.6c-0.449-4.69-1.445-8.68-3.492-12.04-3.685-6.05-10.332-8.99-20.317-8.99s-16.632,2.94-20.317,8.99c-2.047,3.36-3.042,7.35-3.492,12.04H413.6a2.911,2.911,0,0,0-2.894,2.93v12.43A2.911,2.911,0,0,0,413.6,3808.32Zm60.386,36.55c-0.962-6.07-2.942-13.88-6.915-16.66-2.708-1.89-12.164-7.01-16.2-9.2l-0.085-.05a1.3,1.3,0,0,0-1.438.13,17.1,17.1,0,0,1-6.892,3.38,1.309,1.309,0,0,0-.948.83l-2.5,6.68-2.5-6.68a1.311,1.311,0,0,0-.948-0.83,17.111,17.111,0,0,1-6.893-3.38,1.3,1.3,0,0,0-1.438-.13c-3.992,2.17-13.571,7.4-16.275,9.24-4.575,3.13-6.573,14.43-6.927,16.67a1.381,1.381,0,0,0,.059.66C404.24,3846,408.436,3857,439,3857s34.759-11,34.923-11.47A1.356,1.356,0,0,0,473.982,3844.87Zm-14.23-6.97H447.646v-2.58h12.106v2.58Z" transform="translate(-404 -3769)"/>
</svg>
