<svg xmlns="http://www.w3.org/2000/svg" xmlns:xlink="http://www.w3.org/1999/xlink" width="386" height="365" viewBox="0 0 386 365"><defs><path id="k8loa" d="M432.632 2110.017a6.898 6.898 0 0 1-4.054-1.31 6.83 6.83 0 0 1-2.737-6.707l21.309-123.567-90.246-87.502a6.842 6.842 0 0 1-1.744-7.023 6.898 6.898 0 0 1 5.57-4.67l124.708-18.03 55.777-112.423a6.886 6.886 0 0 1 6.177-3.827 6.87 6.87 0 0 1 6.177 3.827l55.77 112.423 124.716 18.03a6.896 6.896 0 0 1 5.57 4.67 6.825 6.825 0 0 1-1.744 7.023l-90.247 87.515 21.302 123.561a6.857 6.857 0 0 1-2.737 6.707 6.873 6.873 0 0 1-7.266.521l-111.54-58.334-111.556 58.334a6.975 6.975 0 0 1-3.205.782zm-56.102-219.21l82.836 80.329a6.836 6.836 0 0 1 1.978 6.069l-19.557 113.418 102.4-53.548a6.896 6.896 0 0 1 6.418 0l102.386 53.548-19.55-113.418a6.842 6.842 0 0 1 1.978-6.07l82.835-80.328-114.47-16.548a6.89 6.89 0 0 1-5.192-3.751l-51.2-103.186-51.2 103.193a6.889 6.889 0 0 1-5.19 3.751z"/></defs><g><g opacity=".1" transform="translate(-354 -1745)"><use fill="#fff" xlink:href="#k8loa"/></g></g></svg>