<svg xmlns="http://www.w3.org/2000/svg" width="385.156" height="365.06" viewBox="0 0 385.156 365.06">
  <metadata><?xpacket begin="﻿" id="W5M0MpCehiHzreSzNTczkc9d"?>
<x:xmpmeta xmlns:x="adobe:ns:meta/" x:xmptk="Adobe XMP Core 5.6-c142 79.160924, 2017/07/13-01:06:39        ">
   <rdf:RDF xmlns:rdf="http://www.w3.org/1999/02/22-rdf-syntax-ns#">
      <rdf:Description rdf:about=""/>
   </rdf:RDF>
</x:xmpmeta>
                                                                                                    
                                                                                                    
                                                                                                    
                                                                                                    
                                                                                                    
                                                                                                    
                                                                                                    
                                                                                                    
                                                                                                    
                                                                                                    
                                                                                                    
                                                                                                    
                                                                                                    
                                                                                                    
                                                                                                    
                                                                                                    
                                                                                                    
                                                                                                    
                                                                                                    
                                                                                                    
                           
<?xpacket end="w"?></metadata>
<defs>
    <style>
      .cls-1 {
        fill: #fff;
        fill-rule: evenodd;
        opacity: 0.1;
      }
    </style>
  </defs>
  <path id="Forma_1" data-name="Forma 1" class="cls-1" d="M432.632,2110.02a6.869,6.869,0,0,1-6.791-8.02l21.309-123.57-90.246-87.5a6.844,6.844,0,0,1,3.826-11.69l124.708-18.03,55.777-112.43a6.892,6.892,0,0,1,6.177-3.82h0a6.874,6.874,0,0,1,6.177,3.82l55.771,112.43,124.714,18.03a6.9,6.9,0,0,1,5.571,4.67,6.825,6.825,0,0,1-1.744,7.02l-90.247,87.52,21.3,123.56a6.881,6.881,0,0,1-10,7.22L547.392,2050.9l-111.555,58.33A6.874,6.874,0,0,1,432.632,2110.02Zm-56.1-219.21,82.836,80.33a6.819,6.819,0,0,1,1.978,6.06l-19.557,113.42,102.4-53.54a6.874,6.874,0,0,1,6.418,0l102.386,53.54L633.44,1977.2a6.82,6.82,0,0,1,1.979-6.06l82.835-80.33-114.471-16.55a6.891,6.891,0,0,1-5.191-3.75l-51.2-103.19-51.2,103.19a6.9,6.9,0,0,1-5.191,3.76Z" transform="translate(-354.813 -1744.97)"/>
</svg>
