<svg xmlns="http://www.w3.org/2000/svg" xmlns:xlink="http://www.w3.org/1999/xlink" width="62" height="88" viewBox="0 0 62 88">
  <metadata><?xpacket begin="﻿" id="W5M0MpCehiHzreSzNTczkc9d"?>
<x:xmpmeta xmlns:x="adobe:ns:meta/" x:xmptk="Adobe XMP Core 5.6-c142 79.160924, 2017/07/13-01:06:39        ">
   <rdf:RDF xmlns:rdf="http://www.w3.org/1999/02/22-rdf-syntax-ns#">
      <rdf:Description rdf:about=""/>
   </rdf:RDF>
</x:xmpmeta>
                                                                                                    
                                                                                                    
                                                                                                    
                                                                                                    
                                                                                                    
                                                                                                    
                                                                                                    
                                                                                                    
                                                                                                    
                                                                                                    
                                                                                                    
                                                                                                    
                                                                                                    
                                                                                                    
                                                                                                    
                                                                                                    
                                                                                                    
                                                                                                    
                                                                                                    
                                                                                                    
                           
<?xpacket end="w"?></metadata>
<defs>
    <style>
      .cls-1 {
        fill-rule: evenodd;
        fill: url(#linear-gradient);
      }
    </style>
    <linearGradient id="linear-gradient" x1="1479" y1="3858" x2="1479" y2="3770" gradientUnits="userSpaceOnUse">
      <stop offset="0" stop-color="#5075e7"/>
      <stop offset="1" stop-color="#8cadf4"/>
    </linearGradient>
  </defs>
  <path id="Forma_1" data-name="Forma 1" class="cls-1" d="M1494.34,3784.77v-9.74h-7.99a7.74,7.74,0,0,0-14.5,0h-8.51v9.74h31Zm5.33-9.74v15.08h-41.34v-15.08H1448V3858h62v-82.97h-10.33ZM1479,3847h-20.67v-5.03H1479V3847Zm0-20.74h-20.67v-5.03H1479v5.03Zm0-20.75h-20.67v-5.03H1479v5.03Zm12.08,45.99-5.21-5.24,3.54-3.55,1.67,1.68,5.12-5.14,3.54,3.56Zm0-20.75-5.21-5.23,3.54-3.56,1.67,1.68,5.12-5.13,3.54,3.55Zm0-20.74-5.21-5.23,3.54-3.56,1.67,1.68,5.12-5.14,3.54,3.56Z" transform="translate(-1448 -3770)"/>
</svg>
